<?xml version="1.0" encoding="iso-8859-1"?>
<!-- Generator: Adobe Illustrator 19.0.0, SVG Export Plug-In . SVG Version: 6.00 Build 0)  -->
<svg version="1.1" id="Capa_1" xmlns="http://www.w3.org/2000/svg" xmlns:xlink="http://www.w3.org/1999/xlink" x="0px" y="0px"
	 viewBox="0 0 478.66 478.66" style="enable-background:new 0 0 478.66 478.66;" xml:space="preserve">
<polygon style="fill:#FFDB6F;" points="460.363,445.583 460.363,157.417 366.502,157.417 366.502,277.677 302.577,277.677 
	302.577,113.792 176.083,113.792 176.083,277.677 112.143,277.677 112.143,157.417 18.296,157.417 18.296,445.583 "/>
<g>
	<polygon style="fill:#ED6262;" points="65.22,92.198 0,157.417 130.44,157.417 	"/>
	<polygon style="fill:#ED6262;" points="413.44,92.198 348.22,157.417 478.66,157.417 	"/>
	<polygon style="fill:#ED6262;" points="239.33,33.001 158.539,113.792 320.12,113.792 	"/>
	<polygon style="fill:#ED6262;" points="118.528,211.193 118.528,248.087 11.912,248.087 11.912,211.193 38.114,211.193 
		38.114,229.564 52.119,229.564 52.119,211.193 78.321,211.193 78.321,229.564 92.326,229.564 92.326,211.193 	"/>
	<polygon style="fill:#ED6262;" points="440.546,211.193 440.546,229.564 426.541,229.564 426.541,211.193 400.339,211.193 
		400.339,229.564 386.334,229.564 386.334,211.193 360.132,211.193 360.132,248.087 466.748,248.087 466.748,211.193 	"/>
	<path style="fill:#ED6262;" d="M239.33,162.462c-18.056,0-32.693,14.637-32.693,32.693v32.693h65.385v-32.693
		C272.023,177.099,257.385,162.462,239.33,162.462z"/>
	<rect x="191.744" y="321.122" style="fill:#ED6262;" width="95.172" height="124.461"/>
	<path style="fill:#ED6262;" d="M65.22,321.122c-11.761,0-21.293,9.532-21.293,21.293v34.409h42.586v-34.409
		C86.513,330.654,76.981,321.122,65.22,321.122z"/>
	<path style="fill:#ED6262;" d="M413.44,321.122c-11.761,0-21.293,9.532-21.293,21.293v34.409h42.586v-34.409
		C434.733,330.654,425.201,321.122,413.44,321.122z"/>
</g>
<path style="opacity:0.05;fill:#231F20;enable-background:new    ;" d="M443.512,375.093c-10.029-0.602-18.462,7.424-18.462,17.468
	v6.716c0,8.433-7.017,14.848-15.646,14.652c0,0,0,0-0.196,0c0,0,0,0-0.196,0c-8.433,0.196-15.646-6.219-15.646-14.652v-10.12
	c0-9.638-7.017-18.056-16.459-18.658c-10.059-0.392-18.296,7.394-18.568,17.197v22.136c0,10.044-8.358,18.056-18.522,17.619
	c-9.487-0.557-16.595-9.035-16.595-18.507v-19.983c-0.271-9.216-7.304-17.348-16.55-17.935c-10.24-0.407-18.462,7.62-18.462,17.649
	l-0.196,13.222c0,10.029-8.222,18.071-18.462,17.664c-9.427-0.602-16.655-9.035-16.655-18.658v-16.444
	c-0.196-9.427-8.026-17.062-17.453-17.062c-9.833,0-17.664,8.026-17.664,17.664v24.501c0,8.026-6.626,14.652-14.848,14.652h-1.205
	c-8.026,0.602-14.848-6.024-14.848-13.839v-23.401c0-9.638-7.017-18.056-16.459-18.658c-10.24-0.407-18.658,7.62-18.658,17.649
	v10.933c0,8.026-6.626,14.652-14.652,14.652c-10.767,0-16.851-7.394-16.851-15.45v-2.5c0-9.427-7.228-18.056-16.655-18.462
	c-10.029-0.602-18.658,7.424-18.658,17.468v6.716c0,8.433-7.017,14.848-15.45,14.652c-0.196,0-0.196,0-0.196,0
	c-9.924,0-15.857-6.882-15.857-14.652v-10.12c0-9.638-7.228-18.056-16.655-18.658c-10.24-0.392-18.462,7.635-18.462,17.664v57.449
	h442.067V393.63C460.363,384.128,453.135,375.499,443.512,375.093z"/>
<g>
</g>
<g>
</g>
<g>
</g>
<g>
</g>
<g>
</g>
<g>
</g>
<g>
</g>
<g>
</g>
<g>
</g>
<g>
</g>
<g>
</g>
<g>
</g>
<g>
</g>
<g>
</g>
<g>
</g>
</svg>
